<?xml version="1.0" encoding="UTF-8"?>
<svg id="Layer_1" data-name="Layer 1" xmlns="http://www.w3.org/2000/svg" viewBox="0 0 516 70">
  <path d="M188.44,15.56c-10.96,0-19.85,8.7-19.85,19.44s8.89,19.44,19.85,19.44,19.85-8.7,19.85-19.44-8.89-19.44-19.85-19.44ZM188.44,45.45c-5.89,0-10.67-4.68-10.67-10.45s4.78-10.45,10.67-10.45,10.67,4.68,10.67,10.45-4.78,10.45-10.67,10.45Z"/>
  <polygon points="240.18 40.2 230.31 16.31 220.72 16.31 236.2 53.69 244.14 53.69 259.62 16.31 250.04 16.31 240.18 40.2"/>
  <polygon points="139.48 38.24 120.32 16.31 112.4 16.31 112.4 53.69 121.31 53.69 121.31 32.54 140.39 53.69 148.39 53.69 148.39 16.31 139.48 16.31 139.48 38.24"/>
  <polygon points="482.57 16.31 474.52 16.31 459.09 53.69 468.68 53.69 478.54 29.81 488.41 53.69 497.98 53.69 482.57 16.31"/>
  <path d="M440.28,21.11c-3.51-3.1-8.18-4.8-13.17-4.8h-17.65v37.39h17.88c4.89,0,9.48-1.65,12.92-4.63,3.97-3.43,6.16-8.37,6.16-13.91s-2.18-10.55-6.15-14.04ZM427.35,45.12h-8.98v-20.25h8.75c5.92,0,10.22,4.32,10.22,10.27,0,6.55-5.03,9.98-9.99,9.98Z"/>
  <rect x="376.66" y="16.31" width="8.91" height="37.39"/>
  <polygon points="285.8 16.31 270.36 53.69 279.95 53.69 289.82 29.81 299.68 53.69 309.26 53.69 293.84 16.31 285.8 16.31"/>
  <polygon points="339.45 40.2 329.59 16.31 320 16.31 335.48 53.69 343.42 53.69 358.9 16.31 349.32 16.31 339.45 40.2"/>
  <polygon points="18.02 23.9 18.02 46.1 35.8 57.2 53.59 46.1 35.8 35 53.59 23.9 35.8 12.8 18.02 23.9"/>
  <polygon points="53.59 23.9 71.37 35 89.15 23.9 71.37 12.8 53.59 23.9"/>
</svg>